<?xml version="1.0" encoding="UTF-8" standalone="no"?>
<!DOCTYPE svg PUBLIC "-//W3C//DTD SVG 1.1//EN"
 "http://www.w3.org/Graphics/SVG/1.1/DTD/svg11.dtd">
<!-- Generated by graphviz version 2.40.1 (20161225.0304)
 -->
<!-- Title: %3 Pages: 1 -->
<svg width="2686pt" height="764pt"
 viewBox="0.00 0.00 2685.84 764.00" xmlns="http://www.w3.org/2000/svg" xmlns:xlink="http://www.w3.org/1999/xlink">
<g id="graph0" class="graph" transform="scale(1 1) rotate(0) translate(4 760)">
<title>%3</title>
<polygon fill="#ffffff" stroke="transparent" points="-4,4 -4,-760 2681.839,-760 2681.839,4 -4,4"/>
<!-- [root] module.docker_server.digitalocean_droplet.server -->
<g id="node1" class="node">
<title>[root] module.docker_server.digitalocean_droplet.server</title>
<polygon fill="none" stroke="#000000" points="1561.4221,-252 1264.8477,-252 1264.8477,-216 1561.4221,-216 1561.4221,-252"/>
<text text-anchor="middle" x="1413.1349" y="-229.8" font-family="Times,serif" font-size="14.00" fill="#000000">module.docker_server.digitalocean_droplet.server</text>
</g>
<!-- [root] module.docker_server.digitalocean_ssh_key.default -->
<g id="node2" class="node">
<title>[root] module.docker_server.digitalocean_ssh_key.default</title>
<polygon fill="none" stroke="#000000" points="761.6373,-180 456.6325,-180 456.6325,-144 761.6373,-144 761.6373,-180"/>
<text text-anchor="middle" x="609.1349" y="-157.8" font-family="Times,serif" font-size="14.00" fill="#000000">module.docker_server.digitalocean_ssh_key.default</text>
</g>
<!-- [root] module.docker_server.digitalocean_droplet.server&#45;&gt;[root] module.docker_server.digitalocean_ssh_key.default -->
<g id="edge4" class="edge">
<title>[root] module.docker_server.digitalocean_droplet.server&#45;&gt;[root] module.docker_server.digitalocean_ssh_key.default</title>
<path fill="none" stroke="#000000" d="M1264.8161,-222.6559C1137.108,-212.6233 947.5882,-197.105 771.9625,-180.0664"/>
<polygon fill="#000000" stroke="#000000" points="772.0427,-176.5577 761.7506,-179.0724 771.3645,-183.5248 772.0427,-176.5577"/>
</g>
<!-- [root] module.docker_server.var.image -->
<g id="node5" class="node">
<title>[root] module.docker_server.var.image</title>
<polygon fill="none" stroke="#000000" points="972.4701,-180 779.7997,-180 779.7997,-144 978.4701,-144 978.4701,-174 972.4701,-180"/>
<polyline fill="none" stroke="#000000" points="972.4701,-180 972.4701,-174 "/>
<polyline fill="none" stroke="#000000" points="978.4701,-174 972.4701,-174 "/>
<text text-anchor="middle" x="879.1349" y="-157.8" font-family="Times,serif" font-size="14.00" fill="#000000">module.docker_server.var.image</text>
</g>
<!-- [root] module.docker_server.digitalocean_droplet.server&#45;&gt;[root] module.docker_server.var.image -->
<g id="edge7" class="edge">
<title>[root] module.docker_server.digitalocean_droplet.server&#45;&gt;[root] module.docker_server.var.image</title>
<path fill="none" stroke="#000000" d="M1264.5862,-216.6136C1185.3693,-206.9912 1086.001,-194.3656 988.5935,-180.188"/>
<polygon fill="#000000" stroke="#000000" points="988.9665,-176.7054 978.5654,-178.7218 987.9538,-183.6318 988.9665,-176.7054"/>
</g>
<!-- [root] module.docker_server.var.name -->
<g id="node6" class="node">
<title>[root] module.docker_server.var.name</title>
<polygon fill="none" stroke="#000000" points="1184.5807,-180 995.6891,-180 995.6891,-144 1190.5807,-144 1190.5807,-174 1184.5807,-180"/>
<polyline fill="none" stroke="#000000" points="1184.5807,-180 1184.5807,-174 "/>
<polyline fill="none" stroke="#000000" points="1190.5807,-174 1184.5807,-174 "/>
<text text-anchor="middle" x="1093.1349" y="-157.8" font-family="Times,serif" font-size="14.00" fill="#000000">module.docker_server.var.name</text>
</g>
<!-- [root] module.docker_server.digitalocean_droplet.server&#45;&gt;[root] module.docker_server.var.name -->
<g id="edge8" class="edge">
<title>[root] module.docker_server.digitalocean_droplet.server&#45;&gt;[root] module.docker_server.var.name</title>
<path fill="none" stroke="#000000" d="M1332.7984,-215.9243C1287.2544,-205.6769 1230.1484,-192.828 1183.1049,-182.2432"/>
<polygon fill="#000000" stroke="#000000" points="1183.7512,-178.8012 1173.2268,-180.0207 1182.2146,-185.6305 1183.7512,-178.8012"/>
</g>
<!-- [root] module.docker_server.var.region -->
<g id="node7" class="node">
<title>[root] module.docker_server.var.region</title>
<polygon fill="none" stroke="#000000" points="1402.0285,-180 1208.2413,-180 1208.2413,-144 1408.0285,-144 1408.0285,-174 1402.0285,-180"/>
<polyline fill="none" stroke="#000000" points="1402.0285,-180 1402.0285,-174 "/>
<polyline fill="none" stroke="#000000" points="1408.0285,-174 1402.0285,-174 "/>
<text text-anchor="middle" x="1308.1349" y="-157.8" font-family="Times,serif" font-size="14.00" fill="#000000">module.docker_server.var.region</text>
</g>
<!-- [root] module.docker_server.digitalocean_droplet.server&#45;&gt;[root] module.docker_server.var.region -->
<g id="edge9" class="edge">
<title>[root] module.docker_server.digitalocean_droplet.server&#45;&gt;[root] module.docker_server.var.region</title>
<path fill="none" stroke="#000000" d="M1386.639,-215.8314C1373.4575,-206.7927 1357.3502,-195.7476 1343.1638,-186.0198"/>
<polygon fill="#000000" stroke="#000000" points="1344.849,-182.9316 1334.6224,-180.1628 1340.8903,-188.7047 1344.849,-182.9316"/>
</g>
<!-- [root] module.docker_server.var.size -->
<g id="node8" class="node">
<title>[root] module.docker_server.var.size</title>
<polygon fill="none" stroke="#000000" points="1606.0285,-180 1426.2413,-180 1426.2413,-144 1612.0285,-144 1612.0285,-174 1606.0285,-180"/>
<polyline fill="none" stroke="#000000" points="1606.0285,-180 1606.0285,-174 "/>
<polyline fill="none" stroke="#000000" points="1612.0285,-174 1606.0285,-174 "/>
<text text-anchor="middle" x="1519.1349" y="-157.8" font-family="Times,serif" font-size="14.00" fill="#000000">module.docker_server.var.size</text>
</g>
<!-- [root] module.docker_server.digitalocean_droplet.server&#45;&gt;[root] module.docker_server.var.size -->
<g id="edge10" class="edge">
<title>[root] module.docker_server.digitalocean_droplet.server&#45;&gt;[root] module.docker_server.var.size</title>
<path fill="none" stroke="#000000" d="M1439.8832,-215.8314C1453.1902,-206.7927 1469.4509,-195.7476 1483.7724,-186.0198"/>
<polygon fill="#000000" stroke="#000000" points="1486.0896,-188.677 1492.3952,-180.1628 1482.1564,-182.8864 1486.0896,-188.677"/>
</g>
<!-- [root] module.docker_server.var.ssh_key_private_key -->
<g id="node10" class="node">
<title>[root] module.docker_server.var.ssh_key_private_key</title>
<polygon fill="none" stroke="#000000" points="1906.4564,-180 1629.8134,-180 1629.8134,-144 1912.4564,-144 1912.4564,-174 1906.4564,-180"/>
<polyline fill="none" stroke="#000000" points="1906.4564,-180 1906.4564,-174 "/>
<polyline fill="none" stroke="#000000" points="1912.4564,-174 1906.4564,-174 "/>
<text text-anchor="middle" x="1771.1349" y="-157.8" font-family="Times,serif" font-size="14.00" fill="#000000">module.docker_server.var.ssh_key_private_key</text>
</g>
<!-- [root] module.docker_server.digitalocean_droplet.server&#45;&gt;[root] module.docker_server.var.ssh_key_private_key -->
<g id="edge11" class="edge">
<title>[root] module.docker_server.digitalocean_droplet.server&#45;&gt;[root] module.docker_server.var.ssh_key_private_key</title>
<path fill="none" stroke="#000000" d="M1503.0113,-215.9243C1554.2835,-205.6126 1618.6535,-192.6666 1671.4706,-182.0442"/>
<polygon fill="#000000" stroke="#000000" points="1672.4185,-185.4237 1681.5321,-180.0207 1671.0382,-178.5612 1672.4185,-185.4237"/>
</g>
<!-- [root] module.docker_server.provisioner.file -->
<g id="node21" class="node">
<title>[root] module.docker_server.provisioner.file</title>
<ellipse fill="none" stroke="#000000" cx="2096.1349" cy="-162" rx="166.1197" ry="18"/>
<text text-anchor="middle" x="2096.1349" y="-157.8" font-family="Times,serif" font-size="14.00" fill="#000000">[root] module.docker_server.provisioner.file</text>
</g>
<!-- [root] module.docker_server.digitalocean_droplet.server&#45;&gt;[root] module.docker_server.provisioner.file -->
<g id="edge5" class="edge">
<title>[root] module.docker_server.digitalocean_droplet.server&#45;&gt;[root] module.docker_server.provisioner.file</title>
<path fill="none" stroke="#000000" d="M1561.3357,-218.3771C1682.2792,-205.6275 1851.4526,-187.7937 1966.9371,-175.6197"/>
<polygon fill="#000000" stroke="#000000" points="1967.3175,-179.0991 1976.8954,-174.5699 1966.5835,-172.1376 1967.3175,-179.0991"/>
</g>
<!-- [root] module.docker_server.provisioner.remote&#45;exec -->
<g id="node22" class="node">
<title>[root] module.docker_server.provisioner.remote&#45;exec</title>
<ellipse fill="none" stroke="#000000" cx="2479.1349" cy="-162" rx="198.9084" ry="18"/>
<text text-anchor="middle" x="2479.1349" y="-157.8" font-family="Times,serif" font-size="14.00" fill="#000000">[root] module.docker_server.provisioner.remote&#45;exec</text>
</g>
<!-- [root] module.docker_server.digitalocean_droplet.server&#45;&gt;[root] module.docker_server.provisioner.remote&#45;exec -->
<g id="edge6" class="edge">
<title>[root] module.docker_server.digitalocean_droplet.server&#45;&gt;[root] module.docker_server.provisioner.remote&#45;exec</title>
<path fill="none" stroke="#000000" d="M1561.6252,-225.7149C1732.7511,-215.9206 2022.3893,-198.5881 2271.1349,-180 2289.5259,-178.6257 2308.823,-177.0866 2327.9395,-175.5026"/>
<polygon fill="#000000" stroke="#000000" points="2328.2394,-178.9898 2337.9139,-174.6708 2327.6576,-172.014 2328.2394,-178.9898"/>
</g>
<!-- [root] module.docker_server.provider.digitalocean -->
<g id="node4" class="node">
<title>[root] module.docker_server.provider.digitalocean</title>
<polygon fill="none" stroke="#000000" points="234.1349,-108 -.135,-90 234.1349,-72 468.4048,-90 234.1349,-108"/>
<text text-anchor="middle" x="234.1349" y="-85.8" font-family="Times,serif" font-size="14.00" fill="#000000">module.docker_server.provider.digitalocean</text>
</g>
<!-- [root] module.docker_server.digitalocean_ssh_key.default&#45;&gt;[root] module.docker_server.provider.digitalocean -->
<g id="edge12" class="edge">
<title>[root] module.docker_server.digitalocean_ssh_key.default&#45;&gt;[root] module.docker_server.provider.digitalocean</title>
<path fill="none" stroke="#000000" d="M514.9906,-143.9243C452.0272,-131.8353 370.2072,-116.1259 311.1363,-104.7843"/>
<polygon fill="#000000" stroke="#000000" points="311.6014,-101.3097 301.1208,-102.8613 310.2814,-108.1841 311.6014,-101.3097"/>
</g>
<!-- [root] module.docker_server.var.ssh_key_name -->
<g id="node9" class="node">
<title>[root] module.docker_server.var.ssh_key_name</title>
<polygon fill="none" stroke="#000000" points="726.191,-108 486.0788,-108 486.0788,-72 732.191,-72 732.191,-102 726.191,-108"/>
<polyline fill="none" stroke="#000000" points="726.191,-108 726.191,-102 "/>
<polyline fill="none" stroke="#000000" points="732.191,-102 726.191,-102 "/>
<text text-anchor="middle" x="609.1349" y="-85.8" font-family="Times,serif" font-size="14.00" fill="#000000">module.docker_server.var.ssh_key_name</text>
</g>
<!-- [root] module.docker_server.digitalocean_ssh_key.default&#45;&gt;[root] module.docker_server.var.ssh_key_name -->
<g id="edge13" class="edge">
<title>[root] module.docker_server.digitalocean_ssh_key.default&#45;&gt;[root] module.docker_server.var.ssh_key_name</title>
<path fill="none" stroke="#000000" d="M609.1349,-143.8314C609.1349,-136.131 609.1349,-126.9743 609.1349,-118.4166"/>
<polygon fill="#000000" stroke="#000000" points="612.635,-118.4132 609.1349,-108.4133 605.635,-118.4133 612.635,-118.4132"/>
</g>
<!-- [root] module.docker_server.var.ssh_key_public_key -->
<g id="node11" class="node">
<title>[root] module.docker_server.var.ssh_key_public_key</title>
<polygon fill="none" stroke="#000000" points="1023.5806,-108 750.6892,-108 750.6892,-72 1029.5806,-72 1029.5806,-102 1023.5806,-108"/>
<polyline fill="none" stroke="#000000" points="1023.5806,-108 1023.5806,-102 "/>
<polyline fill="none" stroke="#000000" points="1029.5806,-102 1023.5806,-102 "/>
<text text-anchor="middle" x="890.1349" y="-85.8" font-family="Times,serif" font-size="14.00" fill="#000000">module.docker_server.var.ssh_key_public_key</text>
</g>
<!-- [root] module.docker_server.digitalocean_ssh_key.default&#45;&gt;[root] module.docker_server.var.ssh_key_public_key -->
<g id="edge14" class="edge">
<title>[root] module.docker_server.digitalocean_ssh_key.default&#45;&gt;[root] module.docker_server.var.ssh_key_public_key</title>
<path fill="none" stroke="#000000" d="M679.6804,-143.9243C719.2638,-133.7819 768.793,-121.0912 809.857,-110.5694"/>
<polygon fill="#000000" stroke="#000000" points="810.7421,-113.9558 819.5604,-108.0831 809.0046,-107.1748 810.7421,-113.9558"/>
</g>
<!-- [root] module.docker_server.output.docker_host -->
<g id="node3" class="node">
<title>[root] module.docker_server.output.docker_host</title>
<polygon fill="none" stroke="#000000" points="1111.8596,-324 866.4102,-324 866.4102,-288 1117.8596,-288 1117.8596,-318 1111.8596,-324"/>
<polyline fill="none" stroke="#000000" points="1111.8596,-324 1111.8596,-318 "/>
<polyline fill="none" stroke="#000000" points="1117.8596,-318 1111.8596,-318 "/>
<text text-anchor="middle" x="992.1349" y="-301.8" font-family="Times,serif" font-size="14.00" fill="#000000">module.docker_server.output.docker_host</text>
</g>
<!-- [root] module.docker_server.output.docker_host&#45;&gt;[root] module.docker_server.digitalocean_droplet.server -->
<g id="edge15" class="edge">
<title>[root] module.docker_server.output.docker_host&#45;&gt;[root] module.docker_server.digitalocean_droplet.server</title>
<path fill="none" stroke="#000000" d="M1097.5562,-287.9707C1158.4753,-277.5522 1235.1863,-264.433 1297.722,-253.7381"/>
<polygon fill="#000000" stroke="#000000" points="1298.3654,-257.1789 1307.6323,-252.0432 1297.1854,-250.2791 1298.3654,-257.1789"/>
</g>
<!-- [root] module.docker_server.var.token -->
<g id="node12" class="node">
<title>[root] module.docker_server.var.token</title>
<polygon fill="none" stroke="#000000" points="325.8665,-36 136.4033,-36 136.4033,0 331.8665,0 331.8665,-30 325.8665,-36"/>
<polyline fill="none" stroke="#000000" points="325.8665,-36 325.8665,-30 "/>
<polyline fill="none" stroke="#000000" points="331.8665,-30 325.8665,-30 "/>
<text text-anchor="middle" x="234.1349" y="-13.8" font-family="Times,serif" font-size="14.00" fill="#000000">module.docker_server.var.token</text>
</g>
<!-- [root] module.docker_server.provider.digitalocean&#45;&gt;[root] module.docker_server.var.token -->
<g id="edge17" class="edge">
<title>[root] module.docker_server.provider.digitalocean&#45;&gt;[root] module.docker_server.var.token</title>
<path fill="none" stroke="#000000" d="M234.1349,-71.8314C234.1349,-64.131 234.1349,-54.9743 234.1349,-46.4166"/>
<polygon fill="#000000" stroke="#000000" points="237.635,-46.4132 234.1349,-36.4133 230.635,-46.4133 237.635,-46.4132"/>
</g>
<!-- [root] module.nginx.docker_container.nginx -->
<g id="node13" class="node">
<title>[root] module.nginx.docker_container.nginx</title>
<polygon fill="none" stroke="#000000" points="1410.3148,-612 1181.955,-612 1181.955,-576 1410.3148,-576 1410.3148,-612"/>
<text text-anchor="middle" x="1296.1349" y="-589.8" font-family="Times,serif" font-size="14.00" fill="#000000">module.nginx.docker_container.nginx</text>
</g>
<!-- [root] module.nginx.docker_image.nginx -->
<g id="node14" class="node">
<title>[root] module.nginx.docker_image.nginx</title>
<polygon fill="none" stroke="#000000" points="1401.7047,-540 1190.5651,-540 1190.5651,-504 1401.7047,-504 1401.7047,-540"/>
<text text-anchor="middle" x="1296.1349" y="-517.8" font-family="Times,serif" font-size="14.00" fill="#000000">module.nginx.docker_image.nginx</text>
</g>
<!-- [root] module.nginx.docker_container.nginx&#45;&gt;[root] module.nginx.docker_image.nginx -->
<g id="edge18" class="edge">
<title>[root] module.nginx.docker_container.nginx&#45;&gt;[root] module.nginx.docker_image.nginx</title>
<path fill="none" stroke="#000000" d="M1296.1349,-575.8314C1296.1349,-568.131 1296.1349,-558.9743 1296.1349,-550.4166"/>
<polygon fill="#000000" stroke="#000000" points="1299.635,-550.4132 1296.1349,-540.4133 1292.635,-550.4133 1299.635,-550.4132"/>
</g>
<!-- [root] module.nginx.provider.docker -->
<g id="node15" class="node">
<title>[root] module.nginx.provider.docker</title>
<polygon fill="none" stroke="#000000" points="1046.1349,-468 880.8638,-450 1046.1349,-432 1211.406,-450 1046.1349,-468"/>
<text text-anchor="middle" x="1046.1349" y="-445.8" font-family="Times,serif" font-size="14.00" fill="#000000">module.nginx.provider.docker</text>
</g>
<!-- [root] module.nginx.docker_image.nginx&#45;&gt;[root] module.nginx.provider.docker -->
<g id="edge19" class="edge">
<title>[root] module.nginx.docker_image.nginx&#45;&gt;[root] module.nginx.provider.docker</title>
<path fill="none" stroke="#000000" d="M1233.372,-503.9243C1192.7038,-492.2118 1140.2355,-477.101 1101.1922,-465.8565"/>
<polygon fill="#000000" stroke="#000000" points="1102.1486,-462.4897 1091.5705,-463.0855 1100.2113,-469.2163 1102.1486,-462.4897"/>
</g>
<!-- [root] module.nginx.var.docker_image_name -->
<g id="node18" class="node">
<title>[root] module.nginx.var.docker_image_name</title>
<polygon fill="none" stroke="#000000" points="1457.2423,-468 1229.0275,-468 1229.0275,-432 1463.2423,-432 1463.2423,-462 1457.2423,-468"/>
<polyline fill="none" stroke="#000000" points="1457.2423,-468 1457.2423,-462 "/>
<polyline fill="none" stroke="#000000" points="1463.2423,-462 1457.2423,-462 "/>
<text text-anchor="middle" x="1346.1349" y="-445.8" font-family="Times,serif" font-size="14.00" fill="#000000">module.nginx.var.docker_image_name</text>
</g>
<!-- [root] module.nginx.docker_image.nginx&#45;&gt;[root] module.nginx.var.docker_image_name -->
<g id="edge20" class="edge">
<title>[root] module.nginx.docker_image.nginx&#45;&gt;[root] module.nginx.var.docker_image_name</title>
<path fill="none" stroke="#000000" d="M1308.752,-503.8314C1314.4521,-495.6232 1321.3012,-485.7606 1327.5708,-476.7323"/>
<polygon fill="#000000" stroke="#000000" points="1330.5187,-478.6234 1333.3479,-468.4133 1324.7691,-474.6306 1330.5187,-478.6234"/>
</g>
<!-- [root] module.nginx.var.docker_host -->
<g id="node17" class="node">
<title>[root] module.nginx.var.docker_host</title>
<polygon fill="none" stroke="#000000" points="1079.0558,-396 899.214,-396 899.214,-360 1085.0558,-360 1085.0558,-390 1079.0558,-396"/>
<polyline fill="none" stroke="#000000" points="1079.0558,-396 1079.0558,-390 "/>
<polyline fill="none" stroke="#000000" points="1085.0558,-390 1079.0558,-390 "/>
<text text-anchor="middle" x="992.1349" y="-373.8" font-family="Times,serif" font-size="14.00" fill="#000000">module.nginx.var.docker_host</text>
</g>
<!-- [root] module.nginx.provider.docker&#45;&gt;[root] module.nginx.var.docker_host -->
<g id="edge22" class="edge">
<title>[root] module.nginx.provider.docker&#45;&gt;[root] module.nginx.var.docker_host</title>
<path fill="none" stroke="#000000" d="M1033.6105,-433.3008C1027.1523,-424.6899 1019.1254,-413.9874 1011.8585,-404.2981"/>
<polygon fill="#000000" stroke="#000000" points="1014.5266,-402.0222 1005.7265,-396.1222 1008.9265,-406.2222 1014.5266,-402.0222"/>
</g>
<!-- [root] module.nginx.var.docker_container_name -->
<g id="node16" class="node">
<title>[root] module.nginx.var.docker_container_name</title>
<polygon fill="none" stroke="#000000" points="1127.1183,-612 881.1515,-612 881.1515,-576 1133.1183,-576 1133.1183,-606 1127.1183,-612"/>
<polyline fill="none" stroke="#000000" points="1127.1183,-612 1127.1183,-606 "/>
<polyline fill="none" stroke="#000000" points="1133.1183,-606 1127.1183,-606 "/>
<text text-anchor="middle" x="1007.1349" y="-589.8" font-family="Times,serif" font-size="14.00" fill="#000000">module.nginx.var.docker_container_name</text>
</g>
<!-- [root] module.nginx.var.docker_host&#45;&gt;[root] module.docker_server.output.docker_host -->
<g id="edge23" class="edge">
<title>[root] module.nginx.var.docker_host&#45;&gt;[root] module.docker_server.output.docker_host</title>
<path fill="none" stroke="#000000" d="M992.1349,-359.8314C992.1349,-352.131 992.1349,-342.9743 992.1349,-334.4166"/>
<polygon fill="#000000" stroke="#000000" points="995.635,-334.4132 992.1349,-324.4133 988.635,-334.4133 995.635,-334.4132"/>
</g>
<!-- [root] output.docker_server_ipv4_address -->
<g id="node19" class="node">
<title>[root] output.docker_server_ipv4_address</title>
<polygon fill="none" stroke="#000000" points="955.0807,-540 745.1891,-540 745.1891,-504 961.0807,-504 961.0807,-534 955.0807,-540"/>
<polyline fill="none" stroke="#000000" points="955.0807,-540 955.0807,-534 "/>
<polyline fill="none" stroke="#000000" points="961.0807,-534 955.0807,-534 "/>
<text text-anchor="middle" x="853.1349" y="-517.8" font-family="Times,serif" font-size="14.00" fill="#000000">output.docker_server_ipv4_address</text>
</g>
<!-- [root] output.docker_server_ipv4_address&#45;&gt;[root] module.docker_server.output.docker_host -->
<g id="edge24" class="edge">
<title>[root] output.docker_server_ipv4_address&#45;&gt;[root] module.docker_server.output.docker_host</title>
<path fill="none" stroke="#000000" d="M852.5051,-503.8537C852.3262,-471.4871 856.336,-403.1527 890.1349,-360 900.4176,-346.8716 914.795,-336.572 929.518,-328.6495"/>
<polygon fill="#000000" stroke="#000000" points="931.3441,-331.6484 938.6962,-324.0197 928.1915,-325.3985 931.3441,-331.6484"/>
</g>
<!-- [root] meta.count&#45;boundary (EachMode fixup) -->
<g id="node20" class="node">
<title>[root] meta.count&#45;boundary (EachMode fixup)</title>
<ellipse fill="none" stroke="#000000" cx="969.1349" cy="-666" rx="174.7874" ry="18"/>
<text text-anchor="middle" x="969.1349" y="-661.8" font-family="Times,serif" font-size="14.00" fill="#000000">[root] meta.count&#45;boundary (EachMode fixup)</text>
</g>
<!-- [root] meta.count&#45;boundary (EachMode fixup)&#45;&gt;[root] module.nginx.docker_container.nginx -->
<g id="edge1" class="edge">
<title>[root] meta.count&#45;boundary (EachMode fixup)&#45;&gt;[root] module.nginx.docker_container.nginx</title>
<path fill="none" stroke="#000000" d="M1043.3363,-649.6621C1091.0339,-639.1599 1153.3576,-625.4372 1204.1876,-614.2453"/>
<polygon fill="#000000" stroke="#000000" points="1205.1792,-617.6109 1214.1926,-612.0423 1203.6739,-610.7746 1205.1792,-617.6109"/>
</g>
<!-- [root] meta.count&#45;boundary (EachMode fixup)&#45;&gt;[root] module.nginx.var.docker_container_name -->
<g id="edge2" class="edge">
<title>[root] meta.count&#45;boundary (EachMode fixup)&#45;&gt;[root] module.nginx.var.docker_container_name</title>
<path fill="none" stroke="#000000" d="M978.7239,-647.8314C982.9666,-639.7925 988.047,-630.1666 992.7309,-621.2918"/>
<polygon fill="#000000" stroke="#000000" points="995.8445,-622.8908 997.4168,-612.4133 989.6538,-619.6235 995.8445,-622.8908"/>
</g>
<!-- [root] meta.count&#45;boundary (EachMode fixup)&#45;&gt;[root] output.docker_server_ipv4_address -->
<g id="edge3" class="edge">
<title>[root] meta.count&#45;boundary (EachMode fixup)&#45;&gt;[root] output.docker_server_ipv4_address</title>
<path fill="none" stroke="#000000" d="M919.9887,-648.6793C902.4472,-640.184 884.0894,-628.2099 872.1349,-612 859.08,-594.2979 854.5729,-569.5918 853.1947,-550.5425"/>
<polygon fill="#000000" stroke="#000000" points="856.6811,-550.172 852.71,-540.3496 849.689,-550.5045 856.6811,-550.172"/>
</g>
<!-- [root] module.docker_server.provider.digitalocean (close) -->
<g id="node23" class="node">
<title>[root] module.docker_server.provider.digitalocean (close)</title>
<ellipse fill="none" stroke="#000000" cx="1317.1349" cy="-378" rx="214.3518" ry="18"/>
<text text-anchor="middle" x="1317.1349" y="-373.8" font-family="Times,serif" font-size="14.00" fill="#000000">[root] module.docker_server.provider.digitalocean (close)</text>
</g>
<!-- [root] module.docker_server.provider.digitalocean (close)&#45;&gt;[root] module.docker_server.digitalocean_droplet.server -->
<g id="edge16" class="edge">
<title>[root] module.docker_server.provider.digitalocean (close)&#45;&gt;[root] module.docker_server.digitalocean_droplet.server</title>
<path fill="none" stroke="#000000" d="M1324.3211,-359.8888C1332.2046,-341.0725 1345.917,-311.1923 1362.1349,-288 1369.1079,-278.0283 1377.8693,-268.0712 1386.1535,-259.4726"/>
<polygon fill="#000000" stroke="#000000" points="1388.7061,-261.869 1393.2537,-252.2998 1383.7312,-256.9445 1388.7061,-261.869"/>
</g>
<!-- [root] module.nginx.provider.docker (close) -->
<g id="node24" class="node">
<title>[root] module.nginx.provider.docker (close)</title>
<ellipse fill="none" stroke="#000000" cx="1327.1349" cy="-666" rx="165.6254" ry="18"/>
<text text-anchor="middle" x="1327.1349" y="-661.8" font-family="Times,serif" font-size="14.00" fill="#000000">[root] module.nginx.provider.docker (close)</text>
</g>
<!-- [root] module.nginx.provider.docker (close)&#45;&gt;[root] module.nginx.docker_container.nginx -->
<g id="edge21" class="edge">
<title>[root] module.nginx.provider.docker (close)&#45;&gt;[root] module.nginx.docker_container.nginx</title>
<path fill="none" stroke="#000000" d="M1319.3123,-647.8314C1315.924,-639.9617 1311.8808,-630.5712 1308.1273,-621.8533"/>
<polygon fill="#000000" stroke="#000000" points="1311.2322,-620.214 1304.0628,-612.4133 1304.8028,-622.9822 1311.2322,-620.214"/>
</g>
<!-- [root] provisioner.file (close) -->
<g id="node25" class="node">
<title>[root] provisioner.file (close)</title>
<ellipse fill="none" stroke="#000000" cx="1483.1349" cy="-306" rx="112.0625" ry="18"/>
<text text-anchor="middle" x="1483.1349" y="-301.8" font-family="Times,serif" font-size="14.00" fill="#000000">[root] provisioner.file (close)</text>
</g>
<!-- [root] provisioner.file (close)&#45;&gt;[root] module.docker_server.digitalocean_droplet.server -->
<g id="edge25" class="edge">
<title>[root] provisioner.file (close)&#45;&gt;[root] module.docker_server.digitalocean_droplet.server</title>
<path fill="none" stroke="#000000" d="M1465.8315,-288.2022C1457.3977,-279.5275 1447.1035,-268.9391 1437.8589,-259.4304"/>
<polygon fill="#000000" stroke="#000000" points="1440.2057,-256.8233 1430.7254,-252.0931 1435.1868,-261.7029 1440.2057,-256.8233"/>
</g>
<!-- [root] provisioner.remote&#45;exec (close) -->
<g id="node26" class="node">
<title>[root] provisioner.remote&#45;exec (close)</title>
<ellipse fill="none" stroke="#000000" cx="1731.1349" cy="-594" rx="144.3512" ry="18"/>
<text text-anchor="middle" x="1731.1349" y="-589.8" font-family="Times,serif" font-size="14.00" fill="#000000">[root] provisioner.remote&#45;exec (close)</text>
</g>
<!-- [root] provisioner.remote&#45;exec (close)&#45;&gt;[root] module.docker_server.digitalocean_droplet.server -->
<g id="edge26" class="edge">
<title>[root] provisioner.remote&#45;exec (close)&#45;&gt;[root] module.docker_server.digitalocean_droplet.server</title>
<path fill="none" stroke="#000000" d="M1712.3009,-575.9156C1687.8124,-550.3605 1648.1349,-501.0742 1648.1349,-450 1648.1349,-450 1648.1349,-450 1648.1349,-378 1648.1349,-333.4756 1638.3091,-316.5403 1604.1349,-288 1589.3529,-275.6549 1551.0661,-263.7955 1512.6184,-254.351"/>
<polygon fill="#000000" stroke="#000000" points="1513.3954,-250.9382 1502.8543,-252.0031 1511.7588,-257.7442 1513.3954,-250.9382"/>
</g>
<!-- [root] root -->
<g id="node27" class="node">
<title>[root] root</title>
<ellipse fill="none" stroke="#000000" cx="1521.1349" cy="-738" rx="46.8976" ry="18"/>
<text text-anchor="middle" x="1521.1349" y="-733.8" font-family="Times,serif" font-size="14.00" fill="#000000">[root] root</text>
</g>
<!-- [root] root&#45;&gt;[root] meta.count&#45;boundary (EachMode fixup) -->
<g id="edge27" class="edge">
<title>[root] root&#45;&gt;[root] meta.count&#45;boundary (EachMode fixup)</title>
<path fill="none" stroke="#000000" d="M1476.8955,-732.2296C1393.3477,-721.3321 1209.8073,-697.3921 1087.8207,-681.4808"/>
<polygon fill="#000000" stroke="#000000" points="1088.0509,-677.9812 1077.6822,-680.1583 1087.1455,-684.9224 1088.0509,-677.9812"/>
</g>
<!-- [root] root&#45;&gt;[root] module.docker_server.provider.digitalocean (close) -->
<g id="edge28" class="edge">
<title>[root] root&#45;&gt;[root] module.docker_server.provider.digitalocean (close)</title>
<path fill="none" stroke="#000000" d="M1521.1349,-719.8146C1521.1349,-692.4983 1521.1349,-639.25 1521.1349,-594 1521.1349,-594 1521.1349,-594 1521.1349,-522 1521.1349,-476.4558 1506.8592,-461.4702 1472.1349,-432 1454.265,-416.834 1431.8778,-405.8391 1409.7206,-397.9006"/>
<polygon fill="#000000" stroke="#000000" points="1410.8471,-394.5869 1400.2526,-394.6823 1408.5942,-401.2145 1410.8471,-394.5869"/>
</g>
<!-- [root] root&#45;&gt;[root] module.nginx.provider.docker (close) -->
<g id="edge29" class="edge">
<title>[root] root&#45;&gt;[root] module.nginx.provider.docker (close)</title>
<path fill="none" stroke="#000000" d="M1487.3427,-725.4586C1458.7878,-714.8609 1417.289,-699.4592 1383.6824,-686.9867"/>
<polygon fill="#000000" stroke="#000000" points="1384.5739,-683.5843 1373.9809,-683.3862 1382.1383,-690.147 1384.5739,-683.5843"/>
</g>
<!-- [root] root&#45;&gt;[root] provisioner.file (close) -->
<g id="edge30" class="edge">
<title>[root] root&#45;&gt;[root] provisioner.file (close)</title>
<path fill="none" stroke="#000000" d="M1529.0085,-720.2135C1540.139,-693.4059 1559.1349,-640.799 1559.1349,-594 1559.1349,-594 1559.1349,-594 1559.1349,-450 1559.1349,-409.1184 1560.1009,-395.6745 1540.1349,-360 1533.9456,-348.9411 1524.7343,-338.7928 1515.5121,-330.3521"/>
<polygon fill="#000000" stroke="#000000" points="1517.6747,-327.5945 1507.8291,-323.681 1513.0853,-332.8801 1517.6747,-327.5945"/>
</g>
<!-- [root] root&#45;&gt;[root] provisioner.remote&#45;exec (close) -->
<g id="edge31" class="edge">
<title>[root] root&#45;&gt;[root] provisioner.remote&#45;exec (close)</title>
<path fill="none" stroke="#000000" d="M1544.4109,-722.0393C1581.3763,-696.6916 1653.7069,-647.0935 1696.6872,-617.6213"/>
<polygon fill="#000000" stroke="#000000" points="1698.8633,-620.3729 1705.1313,-611.831 1694.9046,-614.5998 1698.8633,-620.3729"/>
</g>
</g>
</svg>
